<svg width="76" height="76" viewBox="0 0 76 76" fill="none" xmlns="http://www.w3.org/2000/svg">
<path fill-rule="evenodd" clip-rule="evenodd" d="M40.7679 73.7412L37.7721 73.899L36.3451 46.8046C35.9339 46.7535 35.5312 46.6728 35.1394 46.5647L23.2508 69.6569L20.5835 68.2837L32.4339 45.2659C32.0684 45.0022 31.7244 44.71 31.4052 44.3923L9.40032 59.3708L7.71222 56.8909L29.6844 41.9346C29.3671 41.2483 29.1381 40.511 29.0129 39.7366L1.95012 40.8142L1.83077 37.8165L29.06 36.7324C29.1539 36.2515 29.2887 35.7844 29.4606 35.3351L4.91138 23.104L6.2492 20.4189L31.0174 32.759C31.3181 32.4168 31.646 32.0987 31.998 31.8082L15.9949 8.6507L18.4629 6.94516L34.6255 30.3335C34.899 30.2391 35.179 30.1582 35.4649 30.0916L33.9853 1.99864L36.9811 1.84086L38.4607 29.9338C39.0361 30.0053 39.5948 30.1347 40.1304 30.3163L53.5403 4.26921L56.2076 5.64241L42.7574 31.7677C43.0362 31.9939 43.3006 32.2376 43.5488 32.4972L67.2318 16.3764L68.9199 18.8564L45.2079 34.9969C45.358 35.3443 45.4857 35.7039 45.5892 36.0743L73.7738 34.9521L73.8931 37.9497L45.8754 39.0653C45.8473 39.4123 45.7982 39.754 45.7293 40.0888L70.6937 52.5266L69.3559 55.2118L44.6072 42.8814C44.4042 43.2049 44.18 43.514 43.9363 43.8067L59.3958 66.1777L56.9278 67.8833L41.6297 45.7459C40.9258 46.15 40.157 46.4567 39.3409 46.6468L40.7679 73.7412Z" fill="#83A17D"/>
</svg>
